<mxfile host="app.diagrams.net" modified="2021-11-03T18:47:32.752Z" agent="5.0 (X11; Linux x86_64) AppleWebKit/537.36 (KHTML, like Gecko) Chrome/95.0.4638.54 Safari/537.36" etag="6IBpDOdM63E1MQ4CQilw" version="15.6.6" type="github">
  <diagram id="0ftijpRZcThUxndz9LLd" name="Page-1">
    <mxGraphModel dx="1038" dy="581" grid="1" gridSize="10" guides="1" tooltips="1" connect="1" arrows="1" fold="1" page="1" pageScale="1" pageWidth="850" pageHeight="1100" math="0" shadow="0">
      <root>
        <mxCell id="0" />
        <mxCell id="1" parent="0" />
        <mxCell id="1FPzCxgnOFnD5odNLiK5-1" value="VPC" style="sketch=0;outlineConnect=0;gradientColor=none;html=1;whiteSpace=wrap;fontSize=12;fontStyle=0;shape=mxgraph.aws4.group;grIcon=mxgraph.aws4.group_vpc;strokeColor=#879196;fillColor=none;verticalAlign=top;align=left;spacingLeft=30;fontColor=#879196;dashed=0;" parent="1" vertex="1">
          <mxGeometry x="240" y="200" width="520" height="450" as="geometry" />
        </mxCell>
        <mxCell id="1FPzCxgnOFnD5odNLiK5-18" style="edgeStyle=orthogonalEdgeStyle;rounded=0;orthogonalLoop=1;jettySize=auto;html=1;" parent="1" source="1FPzCxgnOFnD5odNLiK5-2" target="1FPzCxgnOFnD5odNLiK5-17" edge="1">
          <mxGeometry relative="1" as="geometry" />
        </mxCell>
        <mxCell id="1FPzCxgnOFnD5odNLiK5-2" value="Internet&#xa;gateway" style="sketch=0;outlineConnect=0;fontColor=#232F3E;gradientColor=none;strokeColor=#232F3E;fillColor=#ffffff;dashed=0;verticalLabelPosition=bottom;verticalAlign=top;align=center;html=1;fontSize=12;fontStyle=0;aspect=fixed;shape=mxgraph.aws4.resourceIcon;resIcon=mxgraph.aws4.internet_gateway;" parent="1" vertex="1">
          <mxGeometry x="480" y="210" width="60" height="60" as="geometry" />
        </mxCell>
        <mxCell id="1FPzCxgnOFnD5odNLiK5-4" value="Public subnet" style="points=[[0,0],[0.25,0],[0.5,0],[0.75,0],[1,0],[1,0.25],[1,0.5],[1,0.75],[1,1],[0.75,1],[0.5,1],[0.25,1],[0,1],[0,0.75],[0,0.5],[0,0.25]];outlineConnect=0;gradientColor=none;html=1;whiteSpace=wrap;fontSize=12;fontStyle=0;shape=mxgraph.aws4.group;grIcon=mxgraph.aws4.group_security_group;grStroke=0;strokeColor=#248814;fillColor=#E9F3E6;verticalAlign=top;align=left;spacingLeft=30;fontColor=#248814;dashed=0;" parent="1" vertex="1">
          <mxGeometry x="600" y="320" width="130" height="130" as="geometry" />
        </mxCell>
        <mxCell id="1FPzCxgnOFnD5odNLiK5-15" value="Availability Zone - A" style="swimlane;fillColor=default;strokeColor=default;fontColor=default;" parent="1" vertex="1">
          <mxGeometry x="270" y="280" width="170" height="340" as="geometry" />
        </mxCell>
        <mxCell id="1FPzCxgnOFnD5odNLiK5-7" value="NAT gateway" style="sketch=0;outlineConnect=0;fontColor=#232F3E;gradientColor=none;strokeColor=#232F3E;fillColor=#ffffff;dashed=0;verticalLabelPosition=bottom;verticalAlign=top;align=center;html=1;fontSize=12;fontStyle=0;aspect=fixed;shape=mxgraph.aws4.resourceIcon;resIcon=mxgraph.aws4.nat_gateway;" parent="1FPzCxgnOFnD5odNLiK5-15" vertex="1">
          <mxGeometry x="45" y="60" width="62.5" height="62.5" as="geometry" />
        </mxCell>
        <mxCell id="1FPzCxgnOFnD5odNLiK5-5" value="Private subnet" style="points=[[0,0],[0.25,0],[0.5,0],[0.75,0],[1,0],[1,0.25],[1,0.5],[1,0.75],[1,1],[0.75,1],[0.5,1],[0.25,1],[0,1],[0,0.75],[0,0.5],[0,0.25]];outlineConnect=0;gradientColor=none;html=1;whiteSpace=wrap;fontSize=12;fontStyle=0;shape=mxgraph.aws4.group;grIcon=mxgraph.aws4.group_security_group;grStroke=0;strokeColor=#147EBA;fillColor=#E6F2F8;verticalAlign=top;align=left;spacingLeft=30;fontColor=#147EBA;dashed=0;" parent="1FPzCxgnOFnD5odNLiK5-15" vertex="1">
          <mxGeometry x="15" y="200" width="130" height="130" as="geometry" />
        </mxCell>
        <mxCell id="ZazR9JnzKLuPoqeAcipP-1" value="Amazon ECS" style="sketch=0;outlineConnect=0;fontColor=#232F3E;gradientColor=none;strokeColor=#ffffff;fillColor=#232F3E;dashed=0;verticalLabelPosition=middle;verticalAlign=bottom;align=center;html=1;whiteSpace=wrap;fontSize=10;fontStyle=1;spacing=3;shape=mxgraph.aws4.productIcon;prIcon=mxgraph.aws4.ecs;" vertex="1" parent="1FPzCxgnOFnD5odNLiK5-15">
          <mxGeometry x="42.5" y="225" width="75" height="90" as="geometry" />
        </mxCell>
        <mxCell id="1FPzCxgnOFnD5odNLiK5-16" value="Availability Zone - B" style="swimlane;fillColor=default;strokeColor=default;fontColor=default;" parent="1" vertex="1">
          <mxGeometry x="570" y="280" width="200" height="340" as="geometry" />
        </mxCell>
        <mxCell id="1FPzCxgnOFnD5odNLiK5-8" value="NAT gateway" style="sketch=0;outlineConnect=0;fontColor=#232F3E;gradientColor=none;strokeColor=#232F3E;fillColor=#ffffff;dashed=0;verticalLabelPosition=bottom;verticalAlign=top;align=center;html=1;fontSize=12;fontStyle=0;aspect=fixed;shape=mxgraph.aws4.resourceIcon;resIcon=mxgraph.aws4.nat_gateway;" parent="1FPzCxgnOFnD5odNLiK5-16" vertex="1">
          <mxGeometry x="65" y="60" width="60" height="60" as="geometry" />
        </mxCell>
        <mxCell id="1FPzCxgnOFnD5odNLiK5-6" value="Private subnet" style="points=[[0,0],[0.25,0],[0.5,0],[0.75,0],[1,0],[1,0.25],[1,0.5],[1,0.75],[1,1],[0.75,1],[0.5,1],[0.25,1],[0,1],[0,0.75],[0,0.5],[0,0.25]];outlineConnect=0;gradientColor=none;html=1;whiteSpace=wrap;fontSize=12;fontStyle=0;shape=mxgraph.aws4.group;grIcon=mxgraph.aws4.group_security_group;grStroke=0;strokeColor=#147EBA;fillColor=#E6F2F8;verticalAlign=top;align=left;spacingLeft=30;fontColor=#147EBA;dashed=0;" parent="1FPzCxgnOFnD5odNLiK5-16" vertex="1">
          <mxGeometry x="30" y="200" width="130" height="130" as="geometry" />
        </mxCell>
        <mxCell id="1FPzCxgnOFnD5odNLiK5-11" style="edgeStyle=orthogonalEdgeStyle;rounded=0;orthogonalLoop=1;jettySize=auto;html=1;" parent="1FPzCxgnOFnD5odNLiK5-16" source="1FPzCxgnOFnD5odNLiK5-6" target="1FPzCxgnOFnD5odNLiK5-8" edge="1">
          <mxGeometry relative="1" as="geometry" />
        </mxCell>
        <mxCell id="ZazR9JnzKLuPoqeAcipP-2" value="Amazon ECS" style="sketch=0;outlineConnect=0;fontColor=#232F3E;gradientColor=none;strokeColor=#ffffff;fillColor=#232F3E;dashed=0;verticalLabelPosition=middle;verticalAlign=bottom;align=center;html=1;whiteSpace=wrap;fontSize=10;fontStyle=1;spacing=3;shape=mxgraph.aws4.productIcon;prIcon=mxgraph.aws4.ecs;" vertex="1" parent="1FPzCxgnOFnD5odNLiK5-16">
          <mxGeometry x="61.25" y="230" width="77.5" height="100" as="geometry" />
        </mxCell>
        <mxCell id="1FPzCxgnOFnD5odNLiK5-17" value="" style="aspect=fixed;perimeter=ellipsePerimeter;html=1;align=center;shadow=0;dashed=0;spacingTop=3;image;image=img/lib/active_directory/internet_globe.svg;" parent="1" vertex="1">
          <mxGeometry x="487.5" y="110" width="45" height="45" as="geometry" />
        </mxCell>
        <mxCell id="ZazR9JnzKLuPoqeAcipP-3" value="ECR" style="outlineConnect=0;dashed=0;verticalLabelPosition=bottom;verticalAlign=top;align=center;html=1;shape=mxgraph.aws3.ecr_registry;fillColor=#F58534;gradientColor=none;" vertex="1" parent="1">
          <mxGeometry x="472" y="710" width="57" height="60" as="geometry" />
        </mxCell>
        <mxCell id="ZazR9JnzKLuPoqeAcipP-18" style="edgeStyle=orthogonalEdgeStyle;rounded=0;orthogonalLoop=1;jettySize=auto;html=1;entryX=0;entryY=0.5;entryDx=0;entryDy=0;labelBackgroundColor=default;fontColor=default;strokeColor=default;" edge="1" parent="1" source="ZazR9JnzKLuPoqeAcipP-6" target="1FPzCxgnOFnD5odNLiK5-4">
          <mxGeometry relative="1" as="geometry" />
        </mxCell>
        <mxCell id="ZazR9JnzKLuPoqeAcipP-19" style="edgeStyle=orthogonalEdgeStyle;rounded=0;orthogonalLoop=1;jettySize=auto;html=1;entryX=1;entryY=0.5;entryDx=0;entryDy=0;labelBackgroundColor=default;fontColor=default;strokeColor=default;" edge="1" parent="1" source="ZazR9JnzKLuPoqeAcipP-6" target="1FPzCxgnOFnD5odNLiK5-3">
          <mxGeometry relative="1" as="geometry" />
        </mxCell>
        <mxCell id="ZazR9JnzKLuPoqeAcipP-6" value="ALB" style="outlineConnect=0;dashed=0;verticalLabelPosition=bottom;verticalAlign=top;align=center;html=1;shape=mxgraph.aws3.application_load_balancer;fillColor=#F58534;gradientColor=none;fontColor=default;strokeColor=default;" vertex="1" parent="1">
          <mxGeometry x="475.5" y="349" width="69" height="72" as="geometry" />
        </mxCell>
        <mxCell id="1FPzCxgnOFnD5odNLiK5-3" value="Public subnet" style="points=[[0,0],[0.25,0],[0.5,0],[0.75,0],[1,0],[1,0.25],[1,0.5],[1,0.75],[1,1],[0.75,1],[0.5,1],[0.25,1],[0,1],[0,0.75],[0,0.5],[0,0.25]];outlineConnect=0;gradientColor=none;html=1;whiteSpace=wrap;fontSize=12;fontStyle=0;shape=mxgraph.aws4.group;grIcon=mxgraph.aws4.group_security_group;grStroke=0;strokeColor=#248814;fillColor=#E9F3E6;verticalAlign=top;align=left;spacingLeft=30;fontColor=#248814;dashed=0;" parent="1" vertex="1">
          <mxGeometry x="290" y="320" width="130" height="130" as="geometry" />
        </mxCell>
        <mxCell id="ZazR9JnzKLuPoqeAcipP-15" style="edgeStyle=orthogonalEdgeStyle;rounded=0;orthogonalLoop=1;jettySize=auto;html=1;labelBackgroundColor=default;fontColor=default;strokeColor=default;" edge="1" parent="1" source="ZazR9JnzKLuPoqeAcipP-8" target="1FPzCxgnOFnD5odNLiK5-2">
          <mxGeometry relative="1" as="geometry">
            <Array as="points">
              <mxPoint x="350" y="240" />
            </Array>
          </mxGeometry>
        </mxCell>
        <mxCell id="ZazR9JnzKLuPoqeAcipP-8" value="NAT gateway" style="sketch=0;outlineConnect=0;fontColor=#232F3E;gradientColor=none;strokeColor=#232F3E;fillColor=#ffffff;dashed=0;verticalLabelPosition=bottom;verticalAlign=top;align=center;html=1;fontSize=12;fontStyle=0;aspect=fixed;shape=mxgraph.aws4.resourceIcon;resIcon=mxgraph.aws4.nat_gateway;" vertex="1" parent="1">
          <mxGeometry x="320" y="342" width="60" height="60" as="geometry" />
        </mxCell>
        <mxCell id="ZazR9JnzKLuPoqeAcipP-9" style="edgeStyle=orthogonalEdgeStyle;rounded=0;orthogonalLoop=1;jettySize=auto;html=1;entryX=0.5;entryY=0;entryDx=0;entryDy=0;entryPerimeter=0;labelBackgroundColor=default;fontColor=default;strokeColor=default;" edge="1" parent="1" source="ZazR9JnzKLuPoqeAcipP-1" target="ZazR9JnzKLuPoqeAcipP-3">
          <mxGeometry relative="1" as="geometry" />
        </mxCell>
        <mxCell id="ZazR9JnzKLuPoqeAcipP-10" style="edgeStyle=orthogonalEdgeStyle;rounded=0;orthogonalLoop=1;jettySize=auto;html=1;entryX=0.5;entryY=0;entryDx=0;entryDy=0;entryPerimeter=0;labelBackgroundColor=default;fontColor=default;strokeColor=default;" edge="1" parent="1" source="ZazR9JnzKLuPoqeAcipP-2" target="ZazR9JnzKLuPoqeAcipP-3">
          <mxGeometry relative="1" as="geometry" />
        </mxCell>
        <mxCell id="ZazR9JnzKLuPoqeAcipP-14" style="edgeStyle=orthogonalEdgeStyle;rounded=0;orthogonalLoop=1;jettySize=auto;html=1;labelBackgroundColor=default;fontColor=default;strokeColor=default;" edge="1" parent="1" source="1FPzCxgnOFnD5odNLiK5-8" target="1FPzCxgnOFnD5odNLiK5-2">
          <mxGeometry relative="1" as="geometry">
            <Array as="points">
              <mxPoint x="665" y="240" />
            </Array>
          </mxGeometry>
        </mxCell>
        <mxCell id="ZazR9JnzKLuPoqeAcipP-21" style="edgeStyle=orthogonalEdgeStyle;rounded=0;orthogonalLoop=1;jettySize=auto;html=1;exitX=0.5;exitY=0;exitDx=0;exitDy=0;labelBackgroundColor=default;fontColor=default;strokeColor=default;" edge="1" parent="1" source="1FPzCxgnOFnD5odNLiK5-5" target="ZazR9JnzKLuPoqeAcipP-8">
          <mxGeometry relative="1" as="geometry" />
        </mxCell>
      </root>
    </mxGraphModel>
  </diagram>
</mxfile>
